<mxfile host="app.diagrams.net" modified="2021-05-13T04:43:21.187Z" agent="5.0 (Macintosh; Intel Mac OS X 10_15_7) AppleWebKit/537.36 (KHTML, like Gecko) Chrome/90.0.4430.93 Safari/537.36" etag="YbcLUlFVXqjf8Qp8A_7X" version="14.6.12" type="github">
  <diagram id="kgpKYQtTHZ0yAKxKKP6v" name="Page-1">
    <mxGraphModel dx="1892" dy="1070" grid="1" gridSize="10" guides="1" tooltips="1" connect="1" arrows="1" fold="1" page="1" pageScale="1" pageWidth="1169" pageHeight="1654" math="0" shadow="0">
      <root>
        <mxCell id="0" />
        <mxCell id="1" parent="0" />
        <mxCell id="PfFklqmFaSp1VNOssTtt-43" value="" style="rounded=0;whiteSpace=wrap;html=1;fontSize=10;fillColor=none;strokeWidth=2;" vertex="1" parent="1">
          <mxGeometry x="340" y="400" width="640" height="150" as="geometry" />
        </mxCell>
        <mxCell id="PfFklqmFaSp1VNOssTtt-1" value="Manager" style="shape=umlActor;verticalLabelPosition=bottom;verticalAlign=top;html=1;outlineConnect=0;" vertex="1" parent="1">
          <mxGeometry x="40" y="70" width="30" height="60" as="geometry" />
        </mxCell>
        <mxCell id="PfFklqmFaSp1VNOssTtt-2" value="" style="endArrow=none;dashed=1;html=1;" edge="1" parent="1">
          <mxGeometry width="50" height="50" relative="1" as="geometry">
            <mxPoint x="54.5" y="804" as="sourcePoint" />
            <mxPoint x="55" y="150" as="targetPoint" />
          </mxGeometry>
        </mxCell>
        <mxCell id="PfFklqmFaSp1VNOssTtt-3" value="InterfacePage:&lt;br&gt;&amp;lt;&amp;lt;html&amp;gt;&amp;gt;" style="rounded=0;whiteSpace=wrap;html=1;" vertex="1" parent="1">
          <mxGeometry x="110" y="70" width="100" height="60" as="geometry" />
        </mxCell>
        <mxCell id="PfFklqmFaSp1VNOssTtt-4" value=":ViewController" style="rounded=0;whiteSpace=wrap;html=1;" vertex="1" parent="1">
          <mxGeometry x="240" y="70" width="100" height="60" as="geometry" />
        </mxCell>
        <mxCell id="PfFklqmFaSp1VNOssTtt-5" value="" style="rounded=0;whiteSpace=wrap;html=1;" vertex="1" parent="1">
          <mxGeometry x="150" y="180" width="20" height="100" as="geometry" />
        </mxCell>
        <mxCell id="PfFklqmFaSp1VNOssTtt-6" value="" style="endArrow=classic;html=1;entryX=0;entryY=0.25;entryDx=0;entryDy=0;" edge="1" parent="1" target="PfFklqmFaSp1VNOssTtt-7">
          <mxGeometry width="50" height="50" relative="1" as="geometry">
            <mxPoint x="171" y="198" as="sourcePoint" />
            <mxPoint x="240" y="190" as="targetPoint" />
          </mxGeometry>
        </mxCell>
        <mxCell id="PfFklqmFaSp1VNOssTtt-7" value="" style="rounded=0;whiteSpace=wrap;html=1;" vertex="1" parent="1">
          <mxGeometry x="280" y="180" width="20" height="70" as="geometry" />
        </mxCell>
        <mxCell id="PfFklqmFaSp1VNOssTtt-8" value="&lt;font style=&quot;font-size: 11px&quot;&gt;show&lt;br&gt;(sendFeedbackPage)&lt;/font&gt;" style="text;html=1;align=center;verticalAlign=middle;resizable=0;points=[];autosize=1;strokeColor=none;" vertex="1" parent="1">
          <mxGeometry x="165" y="160" width="120" height="40" as="geometry" />
        </mxCell>
        <mxCell id="PfFklqmFaSp1VNOssTtt-9" value="" style="endArrow=classic;html=1;" edge="1" parent="1">
          <mxGeometry width="50" height="50" relative="1" as="geometry">
            <mxPoint x="280" y="230" as="sourcePoint" />
            <mxPoint x="170" y="230" as="targetPoint" />
          </mxGeometry>
        </mxCell>
        <mxCell id="PfFklqmFaSp1VNOssTtt-10" value="&lt;font style=&quot;font-size: 9px&quot;&gt;render&lt;br&gt;(sendFeedbackPage)&lt;/font&gt;" style="text;html=1;align=center;verticalAlign=middle;resizable=0;points=[];autosize=1;strokeColor=none;" vertex="1" parent="1">
          <mxGeometry x="170" y="225" width="110" height="30" as="geometry" />
        </mxCell>
        <mxCell id="PfFklqmFaSp1VNOssTtt-11" value="" style="endArrow=none;dashed=1;html=1;exitX=0.5;exitY=0;exitDx=0;exitDy=0;" edge="1" parent="1" source="PfFklqmFaSp1VNOssTtt-5">
          <mxGeometry width="50" height="50" relative="1" as="geometry">
            <mxPoint x="110" y="180" as="sourcePoint" />
            <mxPoint x="160" y="130" as="targetPoint" />
          </mxGeometry>
        </mxCell>
        <mxCell id="PfFklqmFaSp1VNOssTtt-12" value="" style="endArrow=none;dashed=1;html=1;entryX=0.5;entryY=1;entryDx=0;entryDy=0;exitX=0.5;exitY=0;exitDx=0;exitDy=0;" edge="1" parent="1" source="PfFklqmFaSp1VNOssTtt-7" target="PfFklqmFaSp1VNOssTtt-4">
          <mxGeometry width="50" height="50" relative="1" as="geometry">
            <mxPoint x="390" y="420" as="sourcePoint" />
            <mxPoint x="360" y="230" as="targetPoint" />
          </mxGeometry>
        </mxCell>
        <mxCell id="PfFklqmFaSp1VNOssTtt-13" value="" style="endArrow=classic;html=1;" edge="1" parent="1">
          <mxGeometry width="50" height="50" relative="1" as="geometry">
            <mxPoint x="150" y="250" as="sourcePoint" />
            <mxPoint x="60" y="250" as="targetPoint" />
          </mxGeometry>
        </mxCell>
        <mxCell id="PfFklqmFaSp1VNOssTtt-14" value="&lt;font style=&quot;font-size: 13px;&quot;&gt;Result&lt;br style=&quot;font-size: 13px;&quot;&gt;Displayed&lt;br style=&quot;font-size: 13px;&quot;&gt;&lt;/font&gt;" style="text;html=1;align=center;verticalAlign=middle;resizable=0;points=[];autosize=1;strokeColor=none;fontSize=13;" vertex="1" parent="1">
          <mxGeometry x="65" y="250" width="70" height="40" as="geometry" />
        </mxCell>
        <mxCell id="PfFklqmFaSp1VNOssTtt-15" value="" style="rounded=0;whiteSpace=wrap;html=1;" vertex="1" parent="1">
          <mxGeometry x="150" y="310" width="20" height="450" as="geometry" />
        </mxCell>
        <mxCell id="PfFklqmFaSp1VNOssTtt-16" value="" style="endArrow=none;dashed=1;html=1;exitX=0.5;exitY=0;exitDx=0;exitDy=0;" edge="1" parent="1" source="PfFklqmFaSp1VNOssTtt-15">
          <mxGeometry width="50" height="50" relative="1" as="geometry">
            <mxPoint x="110" y="330" as="sourcePoint" />
            <mxPoint x="160" y="280" as="targetPoint" />
          </mxGeometry>
        </mxCell>
        <mxCell id="PfFklqmFaSp1VNOssTtt-17" value="Write Feedback Menu" style="text;html=1;strokeColor=none;fillColor=none;align=center;verticalAlign=middle;whiteSpace=wrap;rounded=0;" vertex="1" parent="1">
          <mxGeometry x="70" y="200" width="70" height="20" as="geometry" />
        </mxCell>
        <mxCell id="PfFklqmFaSp1VNOssTtt-18" value="" style="endArrow=classic;html=1;entryX=-0.05;entryY=0.1;entryDx=0;entryDy=0;entryPerimeter=0;" edge="1" parent="1" target="PfFklqmFaSp1VNOssTtt-5">
          <mxGeometry width="50" height="50" relative="1" as="geometry">
            <mxPoint x="60" y="190" as="sourcePoint" />
            <mxPoint x="110" y="140" as="targetPoint" />
          </mxGeometry>
        </mxCell>
        <mxCell id="PfFklqmFaSp1VNOssTtt-19" value="" style="endArrow=classic;html=1;" edge="1" parent="1">
          <mxGeometry width="50" height="50" relative="1" as="geometry">
            <mxPoint x="61.5" y="320" as="sourcePoint" />
            <mxPoint x="148.5" y="320" as="targetPoint" />
          </mxGeometry>
        </mxCell>
        <mxCell id="PfFklqmFaSp1VNOssTtt-20" value="&lt;font style=&quot;font-size: 13px&quot;&gt;Send Feedback&lt;br&gt;Request&lt;br style=&quot;font-size: 13px&quot;&gt;&lt;/font&gt;" style="text;html=1;align=center;verticalAlign=middle;resizable=0;points=[];autosize=1;strokeColor=none;fontSize=13;" vertex="1" parent="1">
          <mxGeometry x="46.5" y="322" width="110" height="40" as="geometry" />
        </mxCell>
        <mxCell id="PfFklqmFaSp1VNOssTtt-21" value=":Controller" style="rounded=0;whiteSpace=wrap;html=1;" vertex="1" parent="1">
          <mxGeometry x="370" y="70" width="90" height="60" as="geometry" />
        </mxCell>
        <mxCell id="PfFklqmFaSp1VNOssTtt-22" value="" style="endArrow=none;dashed=1;html=1;" edge="1" parent="1">
          <mxGeometry width="50" height="50" relative="1" as="geometry">
            <mxPoint x="414" y="310" as="sourcePoint" />
            <mxPoint x="414" y="130" as="targetPoint" />
          </mxGeometry>
        </mxCell>
        <mxCell id="PfFklqmFaSp1VNOssTtt-23" value="" style="rounded=0;whiteSpace=wrap;html=1;" vertex="1" parent="1">
          <mxGeometry x="405" y="310" width="20" height="270" as="geometry" />
        </mxCell>
        <mxCell id="PfFklqmFaSp1VNOssTtt-26" value="" style="endArrow=classic;html=1;entryX=0.05;entryY=0.148;entryDx=0;entryDy=0;entryPerimeter=0;" edge="1" parent="1" target="PfFklqmFaSp1VNOssTtt-23">
          <mxGeometry width="50" height="50" relative="1" as="geometry">
            <mxPoint x="170" y="350" as="sourcePoint" />
            <mxPoint x="220" y="300" as="targetPoint" />
          </mxGeometry>
        </mxCell>
        <mxCell id="PfFklqmFaSp1VNOssTtt-27" value="sendFeedback&lt;br&gt;(is_anonymous, user_id, content)" style="text;html=1;align=center;verticalAlign=middle;resizable=0;points=[];autosize=1;strokeColor=none;fillColor=#FFFFFF;" vertex="1" parent="1">
          <mxGeometry x="185" y="317" width="190" height="30" as="geometry" />
        </mxCell>
        <mxCell id="PfFklqmFaSp1VNOssTtt-28" value=":IDGenerator" style="rounded=0;whiteSpace=wrap;html=1;" vertex="1" parent="1">
          <mxGeometry x="490" y="70" width="90" height="60" as="geometry" />
        </mxCell>
        <mxCell id="PfFklqmFaSp1VNOssTtt-30" value="" style="rounded=0;whiteSpace=wrap;html=1;" vertex="1" parent="1">
          <mxGeometry x="525" y="410" width="20" height="40" as="geometry" />
        </mxCell>
        <mxCell id="PfFklqmFaSp1VNOssTtt-33" value="" style="endArrow=none;dashed=1;html=1;exitX=0.5;exitY=0;exitDx=0;exitDy=0;" edge="1" parent="1" source="PfFklqmFaSp1VNOssTtt-30">
          <mxGeometry width="50" height="50" relative="1" as="geometry">
            <mxPoint x="534.5" y="310" as="sourcePoint" />
            <mxPoint x="534.5" y="130" as="targetPoint" />
          </mxGeometry>
        </mxCell>
        <mxCell id="PfFklqmFaSp1VNOssTtt-35" value="" style="endArrow=classic;html=1;" edge="1" parent="1">
          <mxGeometry width="50" height="50" relative="1" as="geometry">
            <mxPoint x="425" y="429.5" as="sourcePoint" />
            <mxPoint x="530" y="429.5" as="targetPoint" />
          </mxGeometry>
        </mxCell>
        <mxCell id="PfFklqmFaSp1VNOssTtt-36" value="FeedbackID :=&lt;br&gt;&amp;nbsp;generageID()" style="text;html=1;align=center;verticalAlign=middle;resizable=0;points=[];autosize=1;strokeColor=none;fontSize=10;" vertex="1" parent="1">
          <mxGeometry x="440" y="400" width="80" height="30" as="geometry" />
        </mxCell>
        <mxCell id="PfFklqmFaSp1VNOssTtt-37" value=":Authentication&lt;br&gt;Checker" style="rounded=0;whiteSpace=wrap;html=1;" vertex="1" parent="1">
          <mxGeometry x="620" y="70" width="110" height="60" as="geometry" />
        </mxCell>
        <mxCell id="PfFklqmFaSp1VNOssTtt-39" value="" style="endArrow=none;dashed=1;html=1;exitX=0.5;exitY=0;exitDx=0;exitDy=0;" edge="1" parent="1" source="PfFklqmFaSp1VNOssTtt-40">
          <mxGeometry width="50" height="50" relative="1" as="geometry">
            <mxPoint x="680.5" y="330" as="sourcePoint" />
            <mxPoint x="680" y="130" as="targetPoint" />
          </mxGeometry>
        </mxCell>
        <mxCell id="PfFklqmFaSp1VNOssTtt-40" value="" style="rounded=0;whiteSpace=wrap;html=1;" vertex="1" parent="1">
          <mxGeometry x="670" y="350" width="20" height="40" as="geometry" />
        </mxCell>
        <mxCell id="PfFklqmFaSp1VNOssTtt-41" value="" style="endArrow=classic;html=1;" edge="1" parent="1">
          <mxGeometry width="50" height="50" relative="1" as="geometry">
            <mxPoint x="425" y="370" as="sourcePoint" />
            <mxPoint x="670" y="370" as="targetPoint" />
          </mxGeometry>
        </mxCell>
        <mxCell id="PfFklqmFaSp1VNOssTtt-42" value="Auth := Authenticate()" style="text;html=1;strokeColor=none;fillColor=none;align=center;verticalAlign=middle;whiteSpace=wrap;rounded=0;" vertex="1" parent="1">
          <mxGeometry x="520" y="347" width="160" height="20" as="geometry" />
        </mxCell>
        <mxCell id="PfFklqmFaSp1VNOssTtt-44" value="&lt;b style=&quot;font-size: 12px&quot;&gt;&lt;font style=&quot;font-size: 17px&quot;&gt;OPT&lt;/font&gt;&lt;/b&gt;" style="rounded=0;whiteSpace=wrap;html=1;fontSize=10;fillColor=none;" vertex="1" parent="1">
          <mxGeometry x="340" y="400" width="60" height="40" as="geometry" />
        </mxCell>
        <mxCell id="PfFklqmFaSp1VNOssTtt-45" value="if Auth == True" style="text;html=1;strokeColor=none;align=center;verticalAlign=middle;whiteSpace=wrap;rounded=0;" vertex="1" parent="1">
          <mxGeometry x="320" y="440" width="130" height="20" as="geometry" />
        </mxCell>
        <mxCell id="PfFklqmFaSp1VNOssTtt-46" value="Database" style="shape=umlActor;verticalLabelPosition=bottom;verticalAlign=top;html=1;outlineConnect=0;" vertex="1" parent="1">
          <mxGeometry x="915" y="60" width="30" height="60" as="geometry" />
        </mxCell>
        <mxCell id="PfFklqmFaSp1VNOssTtt-47" value="Database&lt;br&gt;Connection" style="rounded=0;whiteSpace=wrap;html=1;" vertex="1" parent="1">
          <mxGeometry x="770" y="70" width="100" height="60" as="geometry" />
        </mxCell>
        <mxCell id="PfFklqmFaSp1VNOssTtt-48" value="" style="endArrow=none;dashed=1;html=1;fontSize=10;exitX=0.5;exitY=0;exitDx=0;exitDy=0;" edge="1" parent="1" source="PfFklqmFaSp1VNOssTtt-49">
          <mxGeometry width="50" height="50" relative="1" as="geometry">
            <mxPoint x="820" y="480" as="sourcePoint" />
            <mxPoint x="820" y="130" as="targetPoint" />
          </mxGeometry>
        </mxCell>
        <mxCell id="PfFklqmFaSp1VNOssTtt-49" value="" style="rounded=0;whiteSpace=wrap;html=1;fontSize=10;fillColor=none;" vertex="1" parent="1">
          <mxGeometry x="810" y="470" width="20" height="60" as="geometry" />
        </mxCell>
        <mxCell id="PfFklqmFaSp1VNOssTtt-50" value="" style="endArrow=classic;html=1;fontSize=10;" edge="1" parent="1">
          <mxGeometry width="50" height="50" relative="1" as="geometry">
            <mxPoint x="425" y="490" as="sourcePoint" />
            <mxPoint x="810" y="490" as="targetPoint" />
          </mxGeometry>
        </mxCell>
        <mxCell id="PfFklqmFaSp1VNOssTtt-51" value="saveFeedback (is_anonymous, user_id, content, FeedbackID)" style="text;html=1;align=center;verticalAlign=middle;resizable=0;points=[];autosize=1;strokeColor=none;" vertex="1" parent="1">
          <mxGeometry x="440" y="465" width="350" height="20" as="geometry" />
        </mxCell>
        <mxCell id="PfFklqmFaSp1VNOssTtt-53" value="" style="rounded=0;whiteSpace=wrap;html=1;" vertex="1" parent="1">
          <mxGeometry x="920" y="480" width="20" height="40" as="geometry" />
        </mxCell>
        <mxCell id="PfFklqmFaSp1VNOssTtt-54" value="" style="endArrow=classic;html=1;strokeWidth=1;" edge="1" parent="1">
          <mxGeometry width="50" height="50" relative="1" as="geometry">
            <mxPoint x="835" y="499.5" as="sourcePoint" />
            <mxPoint x="915" y="499.5" as="targetPoint" />
          </mxGeometry>
        </mxCell>
        <mxCell id="PfFklqmFaSp1VNOssTtt-55" value="Insert Data" style="text;html=1;strokeColor=none;fillColor=none;align=center;verticalAlign=middle;whiteSpace=wrap;rounded=0;" vertex="1" parent="1">
          <mxGeometry x="835" y="470" width="80" height="20" as="geometry" />
        </mxCell>
        <mxCell id="PfFklqmFaSp1VNOssTtt-56" value="" style="endArrow=classic;html=1;strokeWidth=1;" edge="1" parent="1">
          <mxGeometry width="50" height="50" relative="1" as="geometry">
            <mxPoint x="915" y="510" as="sourcePoint" />
            <mxPoint x="835" y="510" as="targetPoint" />
          </mxGeometry>
        </mxCell>
        <mxCell id="PfFklqmFaSp1VNOssTtt-57" value="result" style="text;html=1;strokeColor=none;fillColor=none;align=center;verticalAlign=middle;whiteSpace=wrap;rounded=0;" vertex="1" parent="1">
          <mxGeometry x="835" y="510" width="80" height="20" as="geometry" />
        </mxCell>
        <mxCell id="PfFklqmFaSp1VNOssTtt-58" value="" style="endArrow=none;dashed=1;html=1;fontSize=10;exitX=0.5;exitY=0;exitDx=0;exitDy=0;" edge="1" parent="1" source="PfFklqmFaSp1VNOssTtt-53">
          <mxGeometry width="50" height="50" relative="1" as="geometry">
            <mxPoint x="880" y="360" as="sourcePoint" />
            <mxPoint x="930" y="140" as="targetPoint" />
          </mxGeometry>
        </mxCell>
        <mxCell id="PfFklqmFaSp1VNOssTtt-60" style="edgeStyle=orthogonalEdgeStyle;rounded=0;orthogonalLoop=1;jettySize=auto;html=1;exitX=0.5;exitY=1;exitDx=0;exitDy=0;fontSize=10;" edge="1" parent="1" source="PfFklqmFaSp1VNOssTtt-43" target="PfFklqmFaSp1VNOssTtt-43">
          <mxGeometry relative="1" as="geometry" />
        </mxCell>
        <mxCell id="PfFklqmFaSp1VNOssTtt-61" value="" style="endArrow=none;dashed=1;html=1;fontSize=10;" edge="1" parent="1">
          <mxGeometry width="50" height="50" relative="1" as="geometry">
            <mxPoint x="290" y="510" as="sourcePoint" />
            <mxPoint x="290" y="250" as="targetPoint" />
          </mxGeometry>
        </mxCell>
        <mxCell id="PfFklqmFaSp1VNOssTtt-64" value="" style="endArrow=classic;html=1;fontSize=10;" edge="1" parent="1">
          <mxGeometry width="50" height="50" relative="1" as="geometry">
            <mxPoint x="810" y="520" as="sourcePoint" />
            <mxPoint x="430" y="520" as="targetPoint" />
          </mxGeometry>
        </mxCell>
        <mxCell id="PfFklqmFaSp1VNOssTtt-65" value="result" style="text;html=1;strokeColor=none;fillColor=none;align=center;verticalAlign=middle;whiteSpace=wrap;rounded=0;" vertex="1" parent="1">
          <mxGeometry x="580" y="520" width="80" height="20" as="geometry" />
        </mxCell>
        <mxCell id="PfFklqmFaSp1VNOssTtt-68" value="" style="rounded=0;whiteSpace=wrap;html=1;strokeWidth=2;gradientColor=none;fillColor=none;" vertex="1" parent="1">
          <mxGeometry x="30" y="500" width="295" height="210" as="geometry" />
        </mxCell>
        <mxCell id="PfFklqmFaSp1VNOssTtt-69" value="" style="endArrow=none;dashed=1;html=1;strokeWidth=3;" edge="1" parent="1">
          <mxGeometry width="50" height="50" relative="1" as="geometry">
            <mxPoint x="30" y="630" as="sourcePoint" />
            <mxPoint x="325" y="630" as="targetPoint" />
          </mxGeometry>
        </mxCell>
        <mxCell id="PfFklqmFaSp1VNOssTtt-70" value="&lt;font style=&quot;font-size: 13px&quot;&gt;render(sendSuccess)&lt;/font&gt;" style="text;html=1;align=center;verticalAlign=middle;resizable=0;points=[];autosize=1;strokeColor=none;fontSize=13;fillColor=#ffffff;" vertex="1" parent="1">
          <mxGeometry x="145" y="570" width="140" height="20" as="geometry" />
        </mxCell>
        <mxCell id="PfFklqmFaSp1VNOssTtt-71" value="" style="endArrow=classic;html=1;" edge="1" parent="1">
          <mxGeometry width="50" height="50" relative="1" as="geometry">
            <mxPoint x="275" y="559.5" as="sourcePoint" />
            <mxPoint x="165" y="559.5" as="targetPoint" />
          </mxGeometry>
        </mxCell>
        <mxCell id="PfFklqmFaSp1VNOssTtt-72" value="" style="endArrow=classic;html=1;" edge="1" parent="1">
          <mxGeometry width="50" height="50" relative="1" as="geometry">
            <mxPoint x="275" y="660" as="sourcePoint" />
            <mxPoint x="165" y="660" as="targetPoint" />
          </mxGeometry>
        </mxCell>
        <mxCell id="PfFklqmFaSp1VNOssTtt-73" value="&lt;font style=&quot;font-size: 13px&quot;&gt;render(sendFail)&lt;/font&gt;" style="text;html=1;align=center;verticalAlign=middle;resizable=0;points=[];autosize=1;strokeColor=none;fontSize=13;" vertex="1" parent="1">
          <mxGeometry x="165" y="660" width="110" height="20" as="geometry" />
        </mxCell>
        <mxCell id="PfFklqmFaSp1VNOssTtt-74" value="&lt;span style=&quot;font-size: 17px&quot;&gt;&lt;b&gt;ALT&lt;/b&gt;&lt;/span&gt;" style="rounded=0;whiteSpace=wrap;html=1;" vertex="1" parent="1">
          <mxGeometry x="30" y="500" width="50" height="40" as="geometry" />
        </mxCell>
        <mxCell id="PfFklqmFaSp1VNOssTtt-75" value="&lt;font style=&quot;font-size: 13px;&quot;&gt;Result&lt;br style=&quot;font-size: 13px;&quot;&gt;Displayed&lt;br style=&quot;font-size: 13px;&quot;&gt;&lt;/font&gt;" style="text;html=1;align=center;verticalAlign=middle;resizable=0;points=[];autosize=1;strokeColor=none;fontSize=13;" vertex="1" parent="1">
          <mxGeometry x="65" y="740" width="70" height="40" as="geometry" />
        </mxCell>
        <mxCell id="PfFklqmFaSp1VNOssTtt-76" value="" style="endArrow=classic;html=1;" edge="1" parent="1">
          <mxGeometry width="50" height="50" relative="1" as="geometry">
            <mxPoint x="145" y="740" as="sourcePoint" />
            <mxPoint x="55" y="740" as="targetPoint" />
          </mxGeometry>
        </mxCell>
        <mxCell id="PfFklqmFaSp1VNOssTtt-77" value="[ Else ]" style="text;html=1;strokeColor=none;align=center;verticalAlign=middle;whiteSpace=wrap;rounded=0;fillColor=#ffffff;" vertex="1" parent="1">
          <mxGeometry x="30" y="630" width="40" height="20" as="geometry" />
        </mxCell>
        <mxCell id="PfFklqmFaSp1VNOssTtt-78" value="if result == Success" style="text;html=1;strokeColor=none;align=center;verticalAlign=middle;whiteSpace=wrap;rounded=0;" vertex="1" parent="1">
          <mxGeometry x="25" y="550" width="130" height="20" as="geometry" />
        </mxCell>
        <mxCell id="PfFklqmFaSp1VNOssTtt-79" value="" style="rounded=0;whiteSpace=wrap;html=1;fontSize=10;fillColor=#ffffff;" vertex="1" parent="1">
          <mxGeometry x="280" y="520" width="20" height="170" as="geometry" />
        </mxCell>
        <mxCell id="PfFklqmFaSp1VNOssTtt-80" value="" style="endArrow=classic;html=1;fontSize=10;" edge="1" parent="1">
          <mxGeometry width="50" height="50" relative="1" as="geometry">
            <mxPoint x="405" y="539" as="sourcePoint" />
            <mxPoint x="305" y="539" as="targetPoint" />
          </mxGeometry>
        </mxCell>
        <mxCell id="PfFklqmFaSp1VNOssTtt-81" value="result" style="text;html=1;strokeColor=none;fillColor=none;align=center;verticalAlign=middle;whiteSpace=wrap;rounded=0;" vertex="1" parent="1">
          <mxGeometry x="320" y="520" width="80" height="20" as="geometry" />
        </mxCell>
      </root>
    </mxGraphModel>
  </diagram>
</mxfile>
